<?xml version="1.0" encoding="UTF-8" standalone="no"?>
<!DOCTYPE svg PUBLIC "-//W3C//DTD SVG 1.1//EN" "http://www.w3.org/Graphics/SVG/1.1/DTD/svg11.dtd">
<svg width="100%" height="100%" viewBox="0 0 1000 1000" version="1.1" xmlns="http://www.w3.org/2000/svg" xmlns:xlink="http://www.w3.org/1999/xlink" xml:space="preserve" xmlns:serif="http://www.serif.com/" style="fill-rule:evenodd;clip-rule:evenodd;stroke-linecap:round;stroke-linejoin:round;stroke-miterlimit:1.5;">
    <g transform="matrix(1.21473,0,0,1.21473,-107.364,-265.079)">
        <g transform="matrix(0.873734,-0.00722992,0.00632626,0.764526,60.9032,189.554)">
            <g transform="matrix(1.03432,0,0,1.01244,2.94874,12.5229)">
                <path d="M396.432,324.666C427.189,239.894 500,215.905 500,215.905C500,215.905 573.26,244.007 600.894,327.793C606.043,343.407 660.366,580.976 510.777,617.965C375.927,651.31 393.772,331.998 396.432,324.666Z" style="fill:rgb(107,193,92);stroke:rgb(57,93,50);stroke-width:37.18px;"/>
            </g>
            <g transform="matrix(0.703546,0.694043,-0.702283,0.711898,582.411,-192.65)">
                <path d="M201.181,633.126C167.49,610.81 143.07,533.158 143.07,533.158C143.07,533.158 249.668,439.117 400.977,511.401C595.125,646.804 446.296,795.483 201.181,633.126Z" style="fill:rgb(81,151,69);stroke:rgb(57,93,50);stroke-width:41.16px;"/>
            </g>
            <g transform="matrix(-0.87852,0.477705,0.477705,0.87852,653.854,-169.799)">
                <path d="M224.41,574.115C177.652,523.98 168.357,429.639 168.357,429.639C177.008,402.431 450.306,413.163 464.1,579.204C471.748,671.259 280.646,634.413 224.41,574.115Z" style="fill:rgb(81,151,69);stroke:rgb(57,93,50);stroke-width:40.42px;"/>
            </g>
            <g transform="matrix(0.945117,0,0,1,60.5397,1.27898e-13)">
                <path d="M237.896,580.677C170.788,532.77 160.157,352.486 160.157,352.486C160.157,352.486 481.912,440.96 457.103,580.677C441.327,669.526 305.004,628.583 237.896,580.677Z" style="fill:rgb(69,120,60);stroke:rgb(57,93,50);stroke-width:39.31px;"/>
            </g>
            <g transform="matrix(-0.875749,0,0,1,928.351,5.68434e-14)">
                <path d="M457.103,580.677C438.566,669.215 305.004,628.583 237.896,580.677C170.788,532.77 160.157,352.486 160.157,352.486C160.157,352.486 481.78,462.817 457.103,580.677Z" style="fill:rgb(64,120,54);stroke:rgb(57,93,50);stroke-width:40.9px;"/>
            </g>
        </g>
        <g transform="matrix(0.734864,0,0,-0.658734,68.8875,1167.37)">
            <path d="M968.126,890.794L205.185,890.794L340.111,410.152L833.2,410.152L968.126,890.794Z" style="fill:white;stroke:rgb(217,210,211);stroke-width:44.83px;"/>
        </g>
    </g>
</svg>
